<?xml version="1.0" encoding="UTF-8"?><svg id="Capa_1" xmlns="http://www.w3.org/2000/svg" viewBox="0 0 32 32"><defs><style>.cls-1{fill:#21b5ea;}.cls-1,.cls-2{stroke-width:0px;}.cls-2{fill:#ffef2c;}</style></defs><circle class="cls-1" cx="16" cy="16" r="13.03"/><path class="cls-2" d="m22.64,14.64c0,1.38,1.08,2.36,2.41,2.36s2.41-.99,2.41-2.36-1.06-2.34-2.41-2.34-2.41.96-2.41,2.34Z"/><path class="cls-2" d="m4.53,14.64c0,1.38,1.08,2.36,2.41,2.36s2.41-.99,2.41-2.36-1.06-2.34-2.41-2.34-2.41.96-2.41,2.34Z"/><path class="cls-2" d="m21.33,18.56l1.46,1.46c.15.15.14.39,0,.53-1.87,1.71-4.28,2.65-6.84,2.64-2.56,0-4.96-.96-6.82-2.68-.15-.14-.16-.38,0-.53l1.47-1.45c.14-.14.37-.14.52,0,1.33,1.21,3.04,1.87,4.85,1.87,1.81,0,3.53-.65,4.86-1.85.15-.13.37-.13.52.01Z"/></svg>