<?xml version="1.0" encoding="UTF-8"?><svg id="Capa_1" xmlns="http://www.w3.org/2000/svg" viewBox="0 0 180 180"><defs><style>.cls-1{fill:#21b5ea;}.cls-1,.cls-2{stroke-width:0px;}.cls-2{fill:#ffef2c;}</style></defs><circle class="cls-1" cx="90" cy="90" r="78.04"/><path class="cls-2" d="m129.79,81.85c0,8.24,6.49,14.16,14.46,14.16,8.12,0,14.46-5.92,14.46-14.16,0-8.24-6.35-14.02-14.46-14.02-7.97,0-14.46,5.78-14.46,14.02Z"/><path class="cls-2" d="m21.29,81.85c0,8.24,6.49,14.16,14.46,14.16,8.12,0,14.46-5.92,14.46-14.16,0-8.24-6.35-14.02-14.46-14.02-7.97,0-14.46,5.78-14.46,14.02Z"/><path class="cls-2" d="m121.95,105.33l8.76,8.75c.89.89.87,2.33-.06,3.18-11.19,10.26-25.64,15.86-40.95,15.82-15.32-.05-29.74-5.72-40.87-16.05-.92-.85-.93-2.3-.04-3.18l8.8-8.7c.85-.84,2.21-.85,3.09-.05,7.96,7.22,18.19,11.19,29.06,11.22,10.86.03,21.12-3.88,29.12-11.06.89-.8,2.25-.78,3.09.06Z"/></svg>