<?xml version="1.0" encoding="UTF-8"?><svg id="Capa_1" xmlns="http://www.w3.org/2000/svg" viewBox="0 0 32 32"><defs><style>.cls-1{fill:#ffef2c;stroke-width:0px;}</style></defs><path class="cls-1" d="m1.86,18.51v-9.87c0-.16.13-.3.3-.3h2.67c.16,0,.3.13.3.3v7.18c0,.16.13.3.3.3h0c.83,0,1.45-.98,1.51-2.73,0-.16.14-.29.3-.29h2.47c.17,0,.31.14.3.31-.06,1.4-.5,2.85-1.63,3.56-.15.09-.19.3-.08.44.8,1.01.48,2.5,1.9,2.5h.18c.16,0,.3.13.3.3v1.94c0,.13-.09.25-.21.29-.23.07-.63.16-1.1.16-2.97,0-2.41-3.49-4.19-3.8-.02,0-.04,0-.05,0h-2.94c-.16,0-.3-.13-.3-.3Z"/><path class="cls-1" d="m15.57,22.21c0,.14-.1.26-.24.29-.23.05-.63.11-1.18.11-1.71,0-2.53-.92-2.53-2.83v-6.38c0-.16.13-.3.3-.3h2.69c.16,0,.3.13.3.3v5.76c0,.41.11.66.43.74.13.03.22.15.22.29v2.02Z"/><path class="cls-1" d="m16.51,18.51v-9.87c0-.16.13-.3.3-.3h2.67c.16,0,.3.13.3.3v7.18c0,.16.13.3.3.3h0c.83,0,1.45-.98,1.51-2.73,0-.16.14-.29.3-.29h2.47c.17,0,.31.14.3.31-.06,1.4-.5,2.85-1.63,3.56-.15.09-.19.3-.08.44.8,1.01.48,2.5,1.9,2.5h.18c.16,0,.3.13.3.3v1.94c0,.13-.09.25-.21.29-.23.07-.63.16-1.1.16-2.97,0-2.41-3.49-4.19-3.8-.02,0-.04,0-.05,0h-2.94c-.16,0-.3-.13-.3-.3Z"/><path class="cls-1" d="m30.22,22.21c0,.14-.1.26-.24.29-.23.05-.63.11-1.18.11-1.71,0-2.53-.92-2.53-2.83v-6.38c0-.16.13-.3.3-.3h2.69c.16,0,.3.13.3.3v5.76c0,.41.11.66.43.74.13.03.22.15.22.29v2.02Z"/><path class="cls-1" d="m27.83,12.12c-1.09,0-1.95-.78-1.95-1.89s.86-1.91,1.95-1.91,1.95.8,1.95,1.91-.88,1.89-1.95,1.89Z"/><path class="cls-1" d="m13.2,12.12c-1.09,0-1.95-.78-1.95-1.89s.86-1.91,1.95-1.91,1.95.8,1.95,1.91-.88,1.89-1.95,1.89Z"/><path class="cls-1" d="m16.2,7.06l-1.17-1.18c-.12-.12-.12-.31,0-.43,1.5-1.38,3.44-2.14,5.49-2.13,2.05,0,3.98.77,5.48,2.16.12.12.13.31,0,.43l-1.18,1.17c-.11.11-.3.11-.41,0-1.07-.97-2.44-1.51-3.89-1.51-1.45,0-2.83.52-3.9,1.49-.12.11-.3.11-.41,0Z"/><path class="cls-1" d="m20.31,21.77c0,1.11-.88,1.91-1.95,1.91s-1.95-.8-1.95-1.91.86-1.89,1.95-1.89,1.95.78,1.95,1.89Z"/><path class="cls-1" d="m5.68,21.77c0,1.11-.88,1.91-1.95,1.91s-1.95-.8-1.95-1.91.86-1.89,1.95-1.89,1.95.78,1.95,1.89Z"/><path class="cls-1" d="m6.73,24.94l-1.17,1.18c-.12.12-.12.31,0,.43,1.5,1.38,3.44,2.14,5.49,2.13,2.05,0,3.98-.77,5.48-2.16.12-.12.13-.31,0-.43l-1.18-1.17c-.11-.11-.3-.11-.41,0-1.07.97-2.44,1.51-3.89,1.51-1.45,0-2.83-.52-3.9-1.49-.12-.11-.3-.11-.41,0Z"/><path class="cls-1" d="m20.69,26.97v-2.57h.33v2.29h1.02v.28h-1.35Z"/><path class="cls-1" d="m23.51,26.25h-.82l-.21.71h-.34l.8-2.57h.33l.8,2.57h-.34l-.21-.71Zm-.72-.28h.63l-.32-1.12-.31,1.12Z"/><path class="cls-1" d="m24.71,26.97v-2.29h-.76v-.28h1.83v.28h-.74v2.29h-.33Z"/><path class="cls-1" d="m27.05,26.25h-.82l-.21.71h-.34l.8-2.57h.33l.8,2.57h-.34l-.21-.71Zm-.72-.28h.63l-.32-1.12-.31,1.12Z"/><path class="cls-1" d="m28.25,25.06v1.9h-.33v-2.57h.34l.69,1.77.68-1.77h.34v2.57h-.33v-1.9l-.58,1.56h-.24l-.58-1.56Z"/></svg>