<?xml version="1.0" encoding="UTF-8"?><svg id="Capa_1" xmlns="http://www.w3.org/2000/svg" viewBox="0 0 48 48"><defs><style>.cls-1{fill:#21b5ea;}.cls-1,.cls-2{stroke-width:0px;}.cls-2{fill:#ffef2c;}</style></defs><circle class="cls-1" cx="24" cy="24" r="20.22"/><path class="cls-2" d="m34.31,21.89c0,2.13,1.68,3.67,3.75,3.67s3.75-1.54,3.75-3.67-1.64-3.63-3.75-3.63-3.75,1.5-3.75,3.63Z"/><path class="cls-2" d="m6.2,21.89c0,2.13,1.68,3.67,3.75,3.67s3.75-1.54,3.75-3.67-1.64-3.63-3.75-3.63-3.75,1.5-3.75,3.63Z"/><path class="cls-2" d="m32.28,27.97l2.27,2.27c.23.23.22.6-.02.82-2.9,2.66-6.64,4.11-10.61,4.1-3.97-.01-7.7-1.48-10.59-4.16-.24-.22-.24-.6-.01-.82l2.28-2.25c.22-.22.57-.22.8-.01,2.06,1.87,4.71,2.9,7.53,2.91,2.81,0,5.47-1.01,7.54-2.87.23-.21.58-.2.8.02Z"/></svg>