<?xml version="1.0" encoding="UTF-8"?><svg id="Capa_1" xmlns="http://www.w3.org/2000/svg" viewBox="0 0 48 48"><defs><style>.cls-1{fill:#21b5ea;stroke-width:0px;}</style></defs><path class="cls-1" d="m3.15,27.71v-14.55c0-.24.2-.44.44-.44h3.93c.24,0,.44.2.44.44v10.58c0,.24.2.44.44.44h0c1.23,0,2.13-1.45,2.22-4.03,0-.24.2-.42.44-.42h3.64c.25,0,.45.21.44.46-.08,2.06-.74,4.2-2.41,5.25-.22.14-.29.44-.12.65,1.17,1.49.71,3.69,2.8,3.69h.26c.24,0,.44.2.44.44v2.87c0,.19-.13.37-.31.42-.34.1-.92.24-1.62.24-4.38,0-3.56-5.15-6.18-5.6-.03,0-.05,0-.08,0H3.59c-.24,0-.44-.2-.44-.44Z"/><path class="cls-1" d="m23.36,33.15c0,.21-.14.39-.35.43-.34.07-.93.17-1.74.17-2.52,0-3.73-1.35-3.73-4.17v-9.41c0-.24.2-.44.44-.44h3.96c.24,0,.44.2.44.44v8.49c0,.6.16.98.64,1.09.19.04.33.23.33.43v2.98Z"/><path class="cls-1" d="m24.75,27.71v-14.55c0-.24.2-.44.44-.44h3.93c.24,0,.44.2.44.44v10.58c0,.24.2.44.44.44h0c1.23,0,2.13-1.45,2.22-4.03,0-.24.2-.42.44-.42h3.64c.25,0,.45.21.44.46-.08,2.06-.74,4.2-2.41,5.25-.22.14-.29.44-.12.65,1.17,1.49.71,3.69,2.8,3.69h.26c.24,0,.44.2.44.44v2.87c0,.19-.13.37-.31.42-.34.1-.92.24-1.62.24-4.38,0-3.56-5.15-6.18-5.6-.03,0-.05,0-.08,0h-4.33c-.24,0-.44-.2-.44-.44Z"/><path class="cls-1" d="m44.96,33.15c0,.21-.14.39-.35.43-.34.07-.93.17-1.74.17-2.52,0-3.73-1.35-3.73-4.17v-9.41c0-.24.2-.44.44-.44h3.96c.24,0,.44.2.44.44v8.49c0,.6.16.98.64,1.09.19.04.33.23.33.43v2.98Z"/><path class="cls-1" d="m41.45,18.28c-1.61,0-2.88-1.15-2.88-2.79s1.26-2.82,2.88-2.82,2.88,1.18,2.88,2.82-1.29,2.79-2.88,2.79Z"/><path class="cls-1" d="m19.87,18.28c-1.61,0-2.88-1.15-2.88-2.79s1.26-2.82,2.88-2.82,2.88,1.18,2.88,2.82-1.29,2.79-2.88,2.79Z"/><path class="cls-1" d="m24.3,10.83l-1.73-1.74c-.18-.18-.17-.46.01-.63,2.21-2.04,5.07-3.15,8.09-3.15,3.03,0,5.87,1.14,8.07,3.19.18.17.18.46,0,.63l-1.74,1.73c-.17.17-.44.17-.61,0-1.57-1.44-3.59-2.22-5.74-2.23-2.15,0-4.17.77-5.75,2.2-.18.16-.44.16-.61-.01Z"/><path class="cls-1" d="m30.36,32.51c0,1.64-1.29,2.82-2.88,2.82s-2.88-1.18-2.88-2.82,1.26-2.79,2.88-2.79,2.88,1.15,2.88,2.79Z"/><path class="cls-1" d="m8.79,32.51c0,1.64-1.29,2.82-2.88,2.82s-2.88-1.18-2.88-2.82,1.26-2.79,2.88-2.79,2.88,1.15,2.88,2.79Z"/><path class="cls-1" d="m10.33,37.17l-1.73,1.74c-.18.18-.17.46.01.63,2.21,2.04,5.07,3.15,8.09,3.15,3.03,0,5.87-1.14,8.07-3.19.18-.17.18-.46,0-.63l-1.74-1.73c-.17-.17-.44-.17-.61,0-1.57,1.44-3.59,2.22-5.74,2.23-2.15,0-4.17-.77-5.75-2.2-.18-.16-.44-.16-.61.01Z"/><path class="cls-1" d="m30.91,40.17v-3.79h.48v3.37h1.51v.42h-1.99Z"/><path class="cls-1" d="m35.07,39.12h-1.21l-.31,1.05h-.5l1.18-3.79h.48l1.18,3.79h-.5l-.31-1.05Zm-1.07-.41h.93l-.47-1.66-.46,1.66Z"/><path class="cls-1" d="m36.85,40.17v-3.37h-1.12v-.42h2.7v.42h-1.09v3.37h-.48Z"/><path class="cls-1" d="m40.29,39.12h-1.21l-.31,1.05h-.5l1.18-3.79h.48l1.18,3.79h-.5l-.31-1.05Zm-1.07-.41h.93l-.47-1.66-.46,1.66Z"/><path class="cls-1" d="m42.06,37.36v2.8h-.48v-3.79h.5l1.02,2.61,1-2.61h.5v3.79h-.49v-2.8l-.86,2.3h-.35l-.86-2.3Z"/></svg>