<?xml version="1.0" encoding="UTF-8"?><svg id="Capa_1" xmlns="http://www.w3.org/2000/svg" viewBox="0 0 16 16"><defs><style>.cls-1{fill:#21b5ea;}.cls-1,.cls-2{stroke-width:0px;}.cls-2{fill:#ffef2c;}</style></defs><circle class="cls-1" cx="8" cy="8" r="5.84"/><path class="cls-2" d="m10.98,7.39c0,.62.49,1.06,1.08,1.06s1.08-.44,1.08-1.06-.47-1.05-1.08-1.05-1.08.43-1.08,1.05Z"/><path class="cls-2" d="m2.86,7.39c0,.62.49,1.06,1.08,1.06s1.08-.44,1.08-1.06-.47-1.05-1.08-1.05-1.08.43-1.08,1.05Z"/><path class="cls-2" d="m10.39,9.15l.66.65c.07.07.06.17,0,.24-.84.77-1.92,1.19-3.06,1.18-1.15,0-2.23-.43-3.06-1.2-.07-.06-.07-.17,0-.24l.66-.65c.06-.06.17-.06.23,0,.6.54,1.36.84,2.17.84.81,0,1.58-.29,2.18-.83.07-.06.17-.06.23,0Z"/></svg>