<?xml version="1.0" encoding="UTF-8"?><svg id="Capa_1" xmlns="http://www.w3.org/2000/svg" viewBox="0 0 16 16"><defs><style>.cls-1{fill:#21b5ea;stroke-width:0px;}</style></defs><path class="cls-1" d="m1.08,9.23v-4.82c0-.08.07-.15.15-.15h1.3c.08,0,.15.07.15.15v3.51c0,.08.07.15.15.15h0c.41,0,.71-.48.74-1.34,0-.08.07-.14.15-.14h1.21c.08,0,.15.07.15.15-.03.68-.24,1.39-.8,1.74-.07.05-.09.15-.04.22.39.5.23,1.22.93,1.22h.09c.08,0,.15.07.15.15v.95c0,.06-.04.12-.1.14-.11.03-.31.08-.54.08-1.45,0-1.18-1.71-2.05-1.86,0,0-.02,0-.03,0h-1.44c-.08,0-.15-.07-.15-.15Z"/><path class="cls-1" d="m7.79,11.04c0,.07-.05.13-.12.14-.11.02-.31.06-.58.06-.84,0-1.24-.45-1.24-1.38v-3.12c0-.08.07-.15.15-.15h1.31c.08,0,.15.07.15.15v2.82c0,.2.05.32.21.36.06.01.11.07.11.14v.99Z"/><path class="cls-1" d="m8.25,9.23v-4.82c0-.08.07-.15.15-.15h1.3c.08,0,.15.07.15.15v3.51c0,.08.07.15.15.15h0c.41,0,.71-.48.74-1.34,0-.08.07-.14.15-.14h1.21c.08,0,.15.07.15.15-.03.68-.24,1.39-.8,1.74-.07.05-.09.15-.04.22.39.5.23,1.22.93,1.22h.09c.08,0,.15.07.15.15v.95c0,.06-.04.12-.1.14-.11.03-.31.08-.54.08-1.45,0-1.18-1.71-2.05-1.86,0,0-.02,0-.03,0h-1.44c-.08,0-.15-.07-.15-.15Z"/><path class="cls-1" d="m14.95,11.04c0,.07-.05.13-.12.14-.11.02-.31.06-.58.06-.84,0-1.24-.45-1.24-1.38v-3.12c0-.08.07-.15.15-.15h1.31c.08,0,.15.07.15.15v2.82c0,.2.05.32.21.36.06.01.11.07.11.14v.99Z"/><path class="cls-1" d="m13.79,6.1c-.54,0-.95-.38-.95-.92s.42-.93.95-.93.95.39.95.93-.43.92-.95.92Z"/><path class="cls-1" d="m6.63,6.1c-.54,0-.95-.38-.95-.92s.42-.93.95-.93.95.39.95.93-.43.92-.95.92Z"/><path class="cls-1" d="m8.1,3.63l-.57-.58c-.06-.06-.06-.15,0-.21.73-.68,1.68-1.05,2.68-1.04,1,0,1.95.38,2.68,1.06.06.06.06.15,0,.21l-.58.57c-.06.06-.14.06-.2,0-.52-.48-1.19-.74-1.9-.74-.71,0-1.38.26-1.91.73-.06.05-.15.05-.2,0Z"/><path class="cls-1" d="m10.11,10.82c0,.54-.43.93-.95.93s-.95-.39-.95-.93.42-.92.95-.92.95.38.95.92Z"/><path class="cls-1" d="m2.95,10.82c0,.54-.43.93-.95.93s-.95-.39-.95-.93.42-.92.95-.92.95.38.95.92Z"/><path class="cls-1" d="m3.47,12.37l-.57.58c-.06.06-.06.15,0,.21.73.68,1.68,1.05,2.68,1.04,1,0,1.95-.38,2.68-1.06.06-.06.06-.15,0-.21l-.58-.57c-.06-.06-.14-.06-.2,0-.52.48-1.19.74-1.9.74-.71,0-1.38-.26-1.91-.73-.06-.05-.15-.05-.2,0Z"/><path class="cls-1" d="m10.29,13.36v-1.26h.16v1.12h.5v.14h-.66Z"/><path class="cls-1" d="m11.67,13.01h-.4l-.1.35h-.17l.39-1.26h.16l.39,1.26h-.17l-.1-.35Zm-.35-.13h.31l-.15-.55-.15.55Z"/><path class="cls-1" d="m12.26,13.36v-1.12h-.37v-.14h.89v.14h-.36v1.12h-.16Z"/><path class="cls-1" d="m13.4,13.01h-.4l-.1.35h-.17l.39-1.26h.16l.39,1.26h-.17l-.1-.35Zm-.35-.13h.31l-.15-.55-.15.55Z"/><path class="cls-1" d="m13.99,12.43v.93h-.16v-1.26h.17l.34.87.33-.87h.17v1.26h-.16v-.93l-.28.76h-.11l-.29-.76Z"/></svg>