<?xml version="1.0" encoding="UTF-8"?><svg id="Capa_1" xmlns="http://www.w3.org/2000/svg" viewBox="0 0 180 180"><defs><style>.cls-1{fill:#21b5ea;stroke-width:0px;}</style></defs><path class="cls-1" d="m10.37,104.15v-55.54c0-.93.75-1.68,1.68-1.68h15.01c.93,0,1.68.75,1.68,1.68v40.4c0,.93.75,1.68,1.68,1.68h0c4.68,0,8.15-5.54,8.49-15.39.03-.9.78-1.61,1.68-1.61h13.88c.96,0,1.72.8,1.68,1.76-.32,7.87-2.82,16.05-9.19,20.06-.85.53-1.09,1.69-.47,2.48,4.48,5.71,2.7,14.09,10.71,14.09h1.01c.93,0,1.68.75,1.68,1.68v10.94c0,.74-.49,1.4-1.2,1.61-1.29.39-3.52.91-6.19.91-16.72,0-13.58-19.66-23.6-21.37-.1-.02-.2-.02-.3-.02H12.06c-.93,0-1.68-.75-1.68-1.68Z"/><path class="cls-1" d="m87.55,124.94c0,.79-.55,1.47-1.33,1.64-1.3.28-3.54.64-6.63.64-9.63,0-14.23-5.16-14.23-15.9v-35.94c0-.93.75-1.68,1.68-1.68h15.12c.93,0,1.68.75,1.68,1.68v32.43c0,2.28.62,3.73,2.45,4.15.74.17,1.25.86,1.25,1.62v11.36Z"/><path class="cls-1" d="m92.86,104.15v-55.54c0-.93.75-1.68,1.68-1.68h15.01c.93,0,1.68.75,1.68,1.68v40.4c0,.93.75,1.68,1.68,1.68h0c4.68,0,8.15-5.54,8.49-15.39.03-.9.78-1.61,1.68-1.61h13.88c.96,0,1.72.8,1.68,1.76-.32,7.87-2.82,16.05-9.19,20.06-.85.53-1.09,1.69-.47,2.48,4.48,5.71,2.7,14.09,10.71,14.09h1.01c.93,0,1.68.75,1.68,1.68v10.94c0,.74-.49,1.4-1.2,1.61-1.29.39-3.52.91-6.19.91-16.72,0-13.58-19.66-23.6-21.37-.1-.02-.2-.02-.3-.02h-16.54c-.93,0-1.68-.75-1.68-1.68Z"/><path class="cls-1" d="m170.04,124.94c0,.79-.55,1.47-1.33,1.64-1.3.28-3.54.64-6.63.64-9.63,0-14.23-5.16-14.23-15.9v-35.94c0-.93.75-1.68,1.68-1.68h15.12c.93,0,1.68.75,1.68,1.68v32.43c0,2.28.62,3.73,2.45,4.15.74.17,1.25.86,1.25,1.62v11.36Z"/><path class="cls-1" d="m156.61,68.17c-6.16,0-10.98-4.39-10.98-10.64s4.82-10.75,10.98-10.75,10.98,4.5,10.98,10.75-4.93,10.64-10.98,10.64Z"/><path class="cls-1" d="m74.25,68.17c-6.16,0-10.98-4.39-10.98-10.64s4.82-10.75,10.98-10.75,10.98,4.5,10.98,10.75-4.93,10.64-10.98,10.64Z"/><path class="cls-1" d="m91.13,39.7l-6.6-6.64c-.67-.67-.65-1.77.04-2.42,8.44-7.79,19.34-12.04,30.89-12.01,11.56.03,22.43,4.34,30.83,12.18.69.65.7,1.75.03,2.42l-6.64,6.6c-.64.64-1.66.65-2.33.04-6.01-5.48-13.72-8.49-21.92-8.51-8.19-.02-15.93,2.95-21.96,8.4-.67.61-1.69.59-2.33-.05Z"/><path class="cls-1" d="m114.28,122.47c0,6.25-4.93,10.75-10.98,10.75s-10.98-4.5-10.98-10.75,4.82-10.64,10.98-10.64,10.98,4.39,10.98,10.64Z"/><path class="cls-1" d="m31.92,122.47c0,6.25-4.93,10.75-10.98,10.75s-10.98-4.5-10.98-10.75,4.82-10.64,10.98-10.64,10.98,4.39,10.98,10.64Z"/><path class="cls-1" d="m37.82,140.3l-6.6,6.64c-.67.67-.65,1.77.04,2.42,8.44,7.79,19.34,12.05,30.89,12.02,11.56-.03,22.43-4.34,30.83-12.18.69-.65.7-1.75.03-2.42l-6.64-6.6c-.64-.64-1.66-.65-2.33-.04-6.01,5.48-13.72,8.49-21.92,8.51-8.19.02-15.93-2.95-21.96-8.4-.67-.61-1.69-.59-2.33.05Z"/><path class="cls-1" d="m116.39,151.74v-14.47h1.84v12.88h5.77v1.59h-7.61Z"/><path class="cls-1" d="m132.27,147.72h-4.63l-1.18,4.01h-1.9l4.49-14.47h1.84l4.49,14.47h-1.92l-1.18-4.01Zm-4.07-1.55h3.54l-1.78-6.33-1.76,6.33Z"/><path class="cls-1" d="m139.05,151.74v-12.88h-4.28v-1.59h10.3v1.59h-4.18v12.88h-1.84Z"/><path class="cls-1" d="m152.2,147.72h-4.63l-1.18,4.01h-1.9l4.49-14.47h1.84l4.49,14.47h-1.92l-1.18-4.01Zm-4.07-1.55h3.54l-1.78-6.33-1.76,6.33Z"/><path class="cls-1" d="m158.96,141.03v10.71h-1.84v-14.47h1.92l3.91,9.97,3.82-9.97h1.92v14.47h-1.86v-10.71l-3.27,8.77h-1.32l-3.29-8.77Z"/></svg>